<svg id="Layer_1" data-name="Layer 1" xmlns="http://www.w3.org/2000/svg" viewBox="0 0 708.44 148.78"><defs><style>.cls-1{fill:#b5dc10;fill-rule:evenodd;}.cls-2{fill:#2461aa;}</style></defs><title>Cimigo_logo</title><path class="cls-1" d="M662.37,263.9a140.36,140.36,0,0,0-20-1.36c-28.1,0-53.93,7.7-72.52,20.8h0a49.5,49.5,0,0,0-2.72,16.29C567.18,339.88,613.86,372,671,372c48.47,0,89.73-23.06,100.59-54.73-18.57,12.67-44.39,20.8-72.51,20.8-7.24,0-15-1.36-21.74-1.79a77.37,77.37,0,0,1-15.88-4.54c-22.2-9.94-35.79-32.11-30.82-49.76,4.08-12.64,16.77-19.44,32.19-18.08" transform="translate(-66.73 -223.25)"/><path class="cls-2" d="M150.07,262.68c-5.78-7.8-15.16-12-24.85-12-17.33,0-29,13.29-29,30.2,0,17.18,11.85,29.61,29.47,29.61a32.55,32.55,0,0,0,24.41-11.56v33.94c-9.39,2.9-16.19,5.07-25,5.07A60.58,60.58,0,0,1,84.2,321.9c-12-10.82-17.47-25-17.47-41.16a57,57,0,0,1,16-39.88,59.12,59.12,0,0,1,41.47-17.61,66.7,66.7,0,0,1,25.85,5.48Zm21.37-39.41A14.73,14.73,0,1,0,186.18,238,14.8,14.8,0,0,0,171.44,223.27ZM184.58,261H158.3v74.1h26.28Zm35,9.24h.28c6.21-8.23,13.87-11.7,23.41-11.7,10.68,0,19.93,4.33,25.27,14.17,5.05-9.25,15-14.17,25.13-14.17,18.78,0,25.28,12.29,25.28,29.33v47.23H292.63V299.67c0-7.65.29-20.23-10.83-20.23-12.13,0-12.56,11.41-12.56,20.23v35.38H243V299.67c0-8.24,0-20.81-11.7-20.81s-11.71,12.57-11.71,20.81v35.38h-26.3V261h26.3Zm121-46.92A14.73,14.73,0,1,0,355.32,238,14.79,14.79,0,0,0,340.59,223.27ZM353.74,261H327.45v74.1h26.29Zm90.81,66.88c0,31.49-15.59,44.2-42.89,44.2-17.06,0-39.87-8.81-42.18-28.32H389a9,9,0,0,0,4.9,5.64,17.33,17.33,0,0,0,7.51,1.74c14.16,0,16.91-9.24,16.91-21.24v-3.47c-6.79,6.78-13.72,10.12-23.54,10.12-21.68,0-36.56-16.46-36.56-37.84,0-21.68,15.32-40.17,38-40.17,8.66,0,16.61,2.9,21.8,10.26h.3V261h26.28ZM385.33,297.5c0,9.39,6.21,16.61,16.91,16.61s16.9-7.22,16.9-16.61c0-9.11-6.21-16.76-16.9-16.76S385.33,288.39,385.33,297.5Zm152.46.57c0,25.14-20.8,39.45-44.64,39.45-23.68,0-44.63-14.16-44.63-39.45s20.8-39.58,44.63-39.58S537.79,272.79,537.79,298.07Zm-61.53,0c0,9.39,6.2,16.62,16.89,16.62s16.91-7.23,16.91-16.62c0-9.1-6.2-16.75-16.91-16.75S476.26,289,476.26,298.07Zm194.9-24.51c-11.9,0-21.55,10.94-21.55,24.44s9.65,24.46,21.55,24.46,21.58-11,21.58-24.46-9.66-24.44-21.58-24.44m8.43,57.9a146.55,146.55,0,0,0,19.92,1.37c28.54,0,53.91-7.72,72.92-20.83h0a50.75,50.75,0,0,0,2.73-16.28c0-40.24-46.67-72.36-103.72-72.36-48.92,0-89.68,23.08-101,54.73,19-12.66,44.4-20.8,72.93-20.8,6.78,0,14.94,1.36,21.73,1.81a64.37,64.37,0,0,1,15.4,4.53c22.21,9.95,36.25,32.09,30.81,49.73-3.62,12.68-16.77,19.47-32.16,18.1" transform="translate(-66.73 -223.25)"/></svg>