<svg
  width="19"
  height="19"
  viewBox="0 0 19 19"
  fill="none"
  xmlns="http://www.w3.org/2000/svg"
>
<g clip-path="url(#clip0_457_5236)">
<path
      d="M2.91669 5.1665H16.4167V8.9165H17.9167V5.1665C17.9167 4.3415 17.2417 3.6665 16.4167 3.6665H2.91669C2.09169 3.6665 1.41669 4.3415 1.41669 5.1665V14.1665C1.41669 14.9915 2.09169 15.6665 2.91669 15.6665H9.66669V14.1665H2.91669V5.1665Z"
      fill="#767676"
    />
<path
      d="M11.9167 9.6665L7.41669 6.6665V12.6665L11.9167 9.6665Z"
      fill="#767676"
    />
<path
      d="M14.1667 15.6665C14.1667 16.079 14.5042 16.4165 14.9167 16.4165C15.3292 16.4165 15.6667 16.079 15.6667 15.6665V14.1665H17.1667C17.5792 14.1665 17.9167 13.829 17.9167 13.4165C17.9167 13.004 17.5792 12.6665 17.1667 12.6665H15.6667V11.1665C15.6667 10.754 15.3292 10.4165 14.9167 10.4165C14.5042 10.4165 14.1667 10.754 14.1667 11.1665V12.6665H12.6667C12.2542 12.6665 11.9167 13.004 11.9167 13.4165C11.9167 13.829 12.2542 14.1665 12.6667 14.1665H14.1667V15.6665Z"
      fill="#767676"
    />
</g>
<defs>
<clipPath id="clip0_457_5236">
<rect
        width="18"
        height="18"
        fill="white"
        transform="translate(0.666687 0.666504)"
      />
</clipPath>
</defs>
</svg>
