<svg width="24" height="24" viewBox="0 0 24 24" fill="none" xmlns="http://www.w3.org/2000/svg">
<path d="M2.625 7.87509C3.03918 7.87509 3.375 7.53928 3.375 7.12509V6.09695L12 1.95694L20.625 6.09695V7.12509C20.625 7.53928 20.9608 7.87509 21.375 7.87509C21.7892 7.87509 22.125 7.53928 22.125 7.12509V5.62509C22.125 5.3367 21.9597 5.07376 21.6995 4.94888L12.3245 0.448883C12.1194 0.350372 11.8806 0.350372 11.6755 0.448883L2.30054 4.94888C2.04034 5.07376 1.875 5.3367 1.875 5.62509V7.12509C1.875 7.53928 2.21081 7.87509 2.625 7.87509Z" fill="#1F61A9"/>
<path d="M4.5 7.125C4.5 7.53918 4.83582 7.875 5.25 7.875H18.75C19.1642 7.875 19.5 7.53918 19.5 7.125C19.5 6.71082 19.1642 6.375 18.75 6.375H5.25C4.83582 6.375 4.5 6.71082 4.5 7.125Z" fill="#1F61A9"/>
<path d="M23.5773 22.6117L22.4523 19.6117C22.3426 19.3191 22.0626 19.125 21.7501 19.125H20.6251V10.875H21.7501C22.1642 10.875 22.5001 10.5392 22.5001 10.125C22.5001 9.71082 22.1642 9.375 21.7501 9.375H19.8751H16.8751H7.12507H4.12506H2.25006C1.83588 9.375 1.50006 9.71082 1.50006 10.125C1.50006 10.5392 1.83588 10.875 2.25006 10.875H3.37506V19.125H2.25006C2.18525 19.125 2.12226 19.1331 2.0622 19.1488L2.05689 19.1473C1.6557 19.0459 1.24793 19.2913 1.1474 19.693L0.397404 22.693C0.341374 22.9171 0.391728 23.1544 0.534001 23.3364C0.67609 23.5184 0.894169 23.625 1.12507 23.625H22.8751C23.121 23.625 23.3513 23.5045 23.4916 23.3024C23.6317 23.0999 23.6637 22.842 23.5773 22.6117ZM4.87506 10.875H6.37507H6.50006C7.00006 10.875 6.71088 10.875 7.12507 10.875C7.53925 10.875 7.50006 10.875 7.50006 10.875H7.87507H16.1251H16.5001C15.8642 10.875 16.3683 10.875 16.7825 10.875C17.1967 10.875 17.5001 10.875 17.1177 10.875H17.6251H19.1251V19.125H17.6251H17.2812C17.9099 19.125 17.2892 19.125 16.8751 19.125C16.4609 19.125 16.1251 19.125 16.5526 19.125H16.1251H12.0001H7.87507H7.63774C8.25207 19.125 7.53925 19.125 7.12507 19.125C6.71088 19.125 6.37507 19.125 6.70911 19.125H6.37507H4.87506V10.875ZM2.08564 22.125L2.46064 20.625H4.12506H7.12507H16.8751H19.8751H21.2302L21.7927 22.125H2.08564Z" fill="#1F61A9"/>
<path d="M11.8125 15.75H12.1875C12.291 15.75 12.375 15.8342 12.375 15.9375C12.375 16.0408 12.291 16.125 12.1875 16.125H11.25C10.8358 16.125 10.5 16.4608 10.5 16.875C10.5 17.2892 10.8358 17.625 11.25 17.625C11.25 18.0392 11.5858 18.375 12 18.375C12.4142 18.375 12.75 18.0392 12.75 17.625V17.5213C13.4033 17.2884 13.875 16.6699 13.875 15.9375C13.875 15.007 13.118 14.25 12.1875 14.25H11.8125C11.709 14.25 11.625 14.1658 11.625 14.0625C11.625 13.9592 11.709 13.875 11.8125 13.875H12.75C13.1642 13.875 13.5 13.5392 13.5 13.125C13.5 12.7108 13.1642 12.375 12.75 12.375C12.75 11.9608 12.4142 11.625 12 11.625C11.5858 11.625 11.25 11.9608 11.25 12.375V12.4787C10.5967 12.7116 10.125 13.3301 10.125 14.0625C10.125 14.993 10.882 15.75 11.8125 15.75Z" fill="#1F61A9"/>
</svg>
