<svg width="40" height="40" viewBox="0 0 40 40" fill="none" xmlns="http://www.w3.org/2000/svg">
<path d="M0 20C0 8.95431 8.95431 0 20 0C31.0457 0 40 8.95431 40 20C40 31.0457 31.0457 40 20 40C8.95431 40 0 31.0457 0 20Z" fill="#1C1C1C" fill-opacity="0.05"/>
<path d="M20 10C14.48 10 10 14.48 10 20C10 25.52 14.48 30 20 30C25.52 30 30 25.52 30 20C30 14.48 25.52 10 20 10ZM21 27H19V25H21V27ZM23.07 19.25L22.17 20.17C21.67 20.68 21.31 21.14 21.13 21.86C21.05 22.18 21 22.54 21 23H19V22.5C19 22.04 19.08 21.6 19.22 21.19C19.42 20.61 19.75 20.09 20.17 19.67L21.41 18.41C21.87 17.97 22.09 17.31 21.96 16.61C21.83 15.89 21.27 15.28 20.57 15.08C19.46 14.77 18.43 15.4 18.1 16.35C17.98 16.72 17.67 17 17.28 17H16.98C16.4 17 16 16.44 16.16 15.88C16.59 14.41 17.84 13.29 19.39 13.05C20.91 12.81 22.36 13.6 23.26 14.85C24.44 16.48 24.09 18.23 23.07 19.25Z" fill="#1C1C1C" fill-opacity="0.65"/>
</svg>
