<svg width="24" height="24" viewBox="0 0 24 24" fill="none" xmlns="http://www.w3.org/2000/svg">
<path d="M20 4H4C2.9 4 2.01 4.9 2.01 6L2 18C2 19.1 2.9 20 4 20H14V18.3651H3.5V7.5L12 12.5L20.5 7.5V13H22V6C22 4.9 21.1 4 20 4ZM12 10.5L3.5 5.5H20.5L12 10.5Z" fill="#1F61A9"/>
<path d="M15.5134 17.961H21.248L18.7427 20.2106C18.5424 20.3904 18.5424 20.6854 18.7427 20.8652C18.9429 21.0449 19.2663 21.0449 19.4665 20.8652L22.8498 17.8273C23.0501 17.6475 23.0501 17.3571 22.8498 17.1773L19.4717 14.1348C19.2715 13.9551 18.948 13.9551 18.7478 14.1348C18.5476 14.3146 18.5476 14.605 18.7478 14.7848L21.248 17.039H15.5134C15.231 17.039 15 17.2465 15 17.5C15 17.7535 15.231 17.961 15.5134 17.961Z" fill="#1F61A9"/>
</svg>
