<svg width="12" height="14" viewBox="0 0 12 14" fill="none" xmlns="http://www.w3.org/2000/svg">
<path d="M6.00033 13.2916C5.75033 13.2916 5.54199 13.2083 5.37533 13.0416C5.20866 12.8749 5.12533 12.6666 5.12533 12.4166V2.45825H1.41699C1.16699 2.45825 0.958659 2.37492 0.791992 2.20825C0.625326 2.04159 0.541992 1.83325 0.541992 1.58325C0.541992 1.33325 0.625326 1.12492 0.791992 0.958252C0.958659 0.791585 1.16699 0.708252 1.41699 0.708252H10.5837C10.8337 0.708252 11.042 0.791585 11.2087 0.958252C11.3753 1.12492 11.4587 1.33325 11.4587 1.58325C11.4587 1.83325 11.3753 2.04159 11.2087 2.20825C11.042 2.37492 10.8337 2.45825 10.5837 2.45825H6.87533V12.4166C6.87533 12.6666 6.79199 12.8749 6.62533 13.0416C6.45866 13.2083 6.25033 13.2916 6.00033 13.2916Z" fill="#494949"/>
</svg>
